<svg width="235" height="55" viewBox="0 0 235 55" fill="none" xmlns="http://www.w3.org/2000/svg">
<path d="M67.3513 48.4815H79.4201V33.4628H82.2599L90.8382 48.4815H103.617L93.5004 31.1161C97.9375 29.4148 101.132 26.0708 101.132 20.0868V19.8521C101.132 10.9935 94.9794 6.53481 83.9164 6.53481H67.3513V48.4815ZM79.4201 25.6601V15.5695H83.3839C87.2885 15.5695 89.4183 16.9188 89.4183 20.3215V20.5561C89.4183 23.9588 87.4068 25.6601 83.3247 25.6601H79.4201Z" fill="#000257"/>
<path d="M116.063 49.1855C121.033 49.1855 123.754 47.1321 125.233 44.9028V48.4815H135.527V28.5935C135.527 20.4388 130.084 16.9775 121.565 16.9775C113.105 16.9775 107.248 20.6148 106.775 28.0068H116.714C116.951 26.0708 118.016 24.3695 120.915 24.3695C124.287 24.3695 124.997 26.3055 124.997 29.2388V29.9428H122.039C111.745 29.9428 105.592 32.7588 105.592 39.9748C105.592 46.4868 110.502 49.1855 116.063 49.1855ZM119.731 42.0868C117.247 42.0868 116.063 40.9722 116.063 39.2122C116.063 36.6895 117.956 35.8681 122.216 35.8681H124.997V37.7455C124.997 40.3855 122.749 42.0868 119.731 42.0868Z" fill="#000257"/>
<path d="M153.046 49.1855C157.72 49.1855 161.151 46.6628 162.689 43.4948V48.4815H173.279V4.30548H162.689V22.1401C160.915 19.0308 158.016 16.9775 153.165 16.9775C145.829 16.9775 140.031 22.5508 140.031 32.9935V33.4628C140.031 44.0815 145.888 49.1855 153.046 49.1855ZM156.773 41.1482C153.105 41.1482 150.798 38.5082 150.798 33.3455V32.8762C150.798 27.5375 152.928 24.8975 156.892 24.8975C160.796 24.8975 162.985 27.6548 162.985 32.8175V33.2868C162.985 38.5082 160.619 41.1482 156.773 41.1482Z" fill="#000257"/>
<path d="M188.223 49.1855C193.193 49.1855 195.914 47.1321 197.393 44.9028V48.4815H207.687V28.5935C207.687 20.4388 202.245 16.9775 193.725 16.9775C185.265 16.9775 179.408 20.6148 178.935 28.0068H188.874C189.111 26.0708 190.176 24.3695 193.075 24.3695C196.447 24.3695 197.157 26.3055 197.157 29.2388V29.9428H194.199C183.905 29.9428 177.752 32.7588 177.752 39.9748C177.752 46.4868 182.662 49.1855 188.223 49.1855ZM191.891 42.0868C189.407 42.0868 188.223 40.9722 188.223 39.2122C188.223 36.6895 190.117 35.8681 194.376 35.8681H197.157V37.7455C197.157 40.3855 194.909 42.0868 191.891 42.0868Z" fill="#000257"/>
<path d="M213.729 48.4815H224.319V33.9321C224.319 29.0041 227.869 27.0095 234.317 27.1855V17.3881C229.525 17.3295 226.271 19.3241 224.319 23.9001V17.7988H213.729V48.4815Z" fill="#000257"/>
<path d="M45.1923 55L22.5962 0L0 55L22.5962 45.6296L45.1923 55Z" fill="#000257"/>
</svg>
